:SAMPLES-PER-SECOND 30
:FULLY-SPECIFIED
:DEGREES
319
root  8.9743 37.7244 -6.28289 19.72 79.1457 22.7913
RightUpLeg  -26.1745 -14.02 -3.96411
RightLeg  7.62876 -10.696 3.19806
RightFoot  2.9695 -0.44905 3.81846
RightToes  0.00048216 0.542163 -0.142577
Spine  16.9154 -4.35965 -9.57128
Spine1  5.272 -8.29109 9.39487
HEad  13.8363 1.23502 -2.77643
LeftShoulder1  6.71462 -10.4978 -41.5956
LeftArm  40.9976 -10.2299 -43.5785
LeftForeArm  31.8034 -23.9676 -3.57749
LeftHand  -0.25398 0.0180481 5.50724
RightShoulder  3.05102 5.55451 27.6615
RightArm  -8.14692 -30.3159 53.7588
RightForeArm  35.2488 9.73121 6.44156
RightHand  -0.39227 0.849814 -7.42094
LeftUpLeg  20.3069 8.25393 0.352176
LeftLeg  12.6978 13.9708 -1.30979
LeftFoot  -25.4277 -0.849845 -8.09995
LeftToes  1.06243e-005 4.65856e-005 -8.18505e-006
320
root  10.3551 37.5495 -5.95447 12.0136 79.748 14.3955
RightUpLeg  -29.5585 -20.6062 1.84652
RightLeg  14.0466 -5.40014 0.509947
RightFoot  6.20448 0.111119 -0.484398
RightToes  0.00048216 0.542163 -0.142577
Spine  17.9011 -5.39093 -8.08209
Spine1  4.9047 -9.80337 11.6753
HEad  12.4783 3.02783 -3.79355
LeftShoulder1  6.82284 -10.7199 -41.6093
LeftArm  38.0333 -10.9711 -46.3009
LeftForeArm  36.0782 -30.9146 -4.70952
LeftHand  -0.25398 0.0180481 5.50724
RightShoulder  3.06582 5.67256 27.379
RightArm  -5.58744 -31.9274 54.3417
RightForeArm  40.9487 10.4883 6.60853
RightHand  -0.281386 0.376383 -5.74897
LeftUpLeg  21.7801 9.7938 3.20311
LeftLeg  13.511 11.3859 -0.411765
LeftFoot  -24.8094 -1.01437 -9.82999
LeftToes  1.06243e-005 4.65856e-005 -8.18505e-006
321
root  11.8534 37.424 -5.62408 1.74262 79.1485 3.58725
RightUpLeg  -32.0384 -22.9137 6.02287
RightLeg  20.0764 -2.16331 -1.35767
RightFoot  6.55831 0.548313 -3.22209
RightToes  0.00048216 0.542163 -0.142577
Spine  18.9056 -6.37332 -5.34641
Spine1  4.54745 -10.6062 12.3902
HEad  11.1127 4.52736 -4.05194
LeftShoulder1  6.94404 -11.0235 -41.4536
LeftArm  36.1691 -11.665 -47.6484
LeftForeArm  38.3948 -38.038 -6.41482
LeftHand  -0.25398 0.0180481 5.50724
RightShoulder  3.16752 5.95172 27.4693
RightArm  -5.37589 -32.866 53.4184
RightForeArm  39.6958 10.5107 6.65316
RightHand  -0.296751 0.0773514 -6.31562
LeftUpLeg  23.3158 12.2219 6.58839
LeftLeg  15.1145 7.94257 0.702184
LeftFoot  -23.2595 -1.32197 -14.0153
LeftToes  1.06243e-005 4.65856e-005 -8.18505e-006
322
root  13.4327 37.3454 -5.25964 -5.62114 77.5923 -4.02255
RightUpLeg  -31.9393 -20.435 6.56308
RightLeg  25.2135 -3.0383 -1.77539
RightFoot  4.06184 0.666694 -4.72841
RightToes  0.00048216 0.542163 -0.142577
Spine  19.8284 -7.22324 -2.51061
Spine1  4.32584 -10.9451 12.2347
HEad  10.5139 5.64153 -3.85824
LeftShoulder1  7.0365 -11.2148 -41.4612
LeftArm  35.5011 -12.6011 -47.8995
LeftForeArm  40.6747 -43.9247 -8.01814
LeftHand  -0.25398 0.0180481 5.50724
RightShoulder  3.3343 6.32833 27.8994
RightArm  -7.51442 -32.6373 51.2687
RightForeArm  35.0024 9.39352 6.51187
RightHand  -0.347688 -0.0780807 -7.60589
LeftUpLeg  24.0733 14.6787 9.51094
LeftLeg  18.7161 5.53465 2.23943
LeftFoot  -19.611 -1.23015 -18.704
LeftToes  1.06243e-005 4.65856e-005 -8.18505e-006
323
root  14.9932 37.3524 -4.83309 -9.01373 76.041 -7.64066
RightUpLeg  -31.1061 -19.122 7.17054
RightLeg  28.8748 -3.01526 -2.03675
RightFoot  0.89765 0.661267 -6.10152
RightToes  0.00048216 0.542163 -0.142577
Spine  20.4957 -7.76073 -0.588211
Spine1  4.1326 -11.16 12.4505
HEad  11.0775 6.10884 -3.6003
LeftShoulder1  7.07922 -11.275 -41.5499
LeftArm  34.9557 -13.5685 -47.9116
LeftForeArm  42.6848 -47.4835 -9.11752
LeftHand  -0.25398 0.0180481 5.50724
RightShoulder  3.40295 6.50624 27.9851
RightArm  -10.4526 -31.1107 48.9703
RightForeArm  31.2844 8.04004 5.85515
RightHand  -0.346951 -0.434994 -8.0815
LeftUpLeg  21.8306 14.3251 10.3373
LeftLeg  26.3292 7.85141 4.63452
LeftFoot  -12.0165 -0.0903952 -18.7747
LeftToes  1.06243e-005 4.65856e-005 -8.18505e-006
324
root  16.4201 37.4253 -4.3902 -11.0559 74.996 -10.0906
RightUpLeg  -30.082 -18.1577 7.62211
RightLeg  31.3507 -3.37633 -2.46831
RightFoot  -1.7146 0.584048 -7.04013
RightToes  0.00048216 0.542163 -0.142577
Spine  20.881 -7.99372 0.827288
Spine1  3.947 -11.2381 13.2023
HEad  12.2716 5.73359 -3.38782
LeftShoulder1  7.06529 -11.2932 -41.4069
LeftArm  34.0292 -14.5255 -48.4087
LeftForeArm  43.1011 -48.4554 -9.46441
LeftHand  -0.25398 0.0180481 5.50724
RightShoulder  3.38951 6.56894 27.6307
RightArm  -13.2923 -28.6124 47.0957
RightForeArm  28.6423 7.47876 4.87417
RightHand  -0.3229 -0.907597 -8.24337
LeftUpLeg  16.466 13.7751 10.5536
LeftLeg  37.0108 9.68592 8.09283
LeftFoot  -1.39894 1.07319 -12.5535
LeftToes  1.06243e-005 4.65856e-005 -8.18505e-006
325
root  17.6816 37.4935 -3.99738 -13.2348 74.3687 -12.6069
RightUpLeg  -28.8423 -17.1194 7.85814
RightLeg  33.2057 -3.90529 -3.00652
RightFoot  -4.23449 0.391787 -6.71766
RightToes  0.00048216 0.542163 -0.142577
Spine  21.1346 -8.09106 2.55641
Spine1  4.00798 -10.974 13.6633
HEad  13.2523 4.48614 -3.1291
LeftShoulder1  7.0235 -11.3462 -40.9838
LeftArm  32.7304 -15.6363 -49.3282
LeftForeArm  41.8322 -47.37 -9.14791
LeftHand  -0.25398 0.0180481 5.50724
RightShoulder  3.47249 6.84648 27.525
RightArm  -15.7191 -25.3687 45.1222
RightForeArm  24.709 7.819 4.21122
RightHand  -0.375925 -0.724179 -9.2387
LeftUpLeg  9.7152 13.103 10.6474
LeftLeg  47.7453 8.7248 10.5128
LeftFoot  6.29622 0.907531 -5.86944
LeftToes  1.06243e-005 4.65856e-005 -8.18505e-006
326
root  18.9172 37.6804 -3.62315 -13.8712 73.8236 -13.1281
RightUpLeg  -26.4438 -16.1741 7.37422
RightLeg  33.7689 -4.09036 -3.2024
RightFoot  -6.60792 0.189408 -5.66623
RightToes  0.00048216 0.542163 -0.142577
Spine  21.2274 -7.87463 4.07095
Spine1  4.44673 -10.3084 13.2827
HEad  13.777 2.55445 -2.78301
LeftShoulder1  7.016 -11.47 -40.5699
LeftArm  31.1033 -16.7136 -50.039
LeftForeArm  39.7946 -45.0184 -8.44904
LeftHand  -0.25398 0.0180481 5.50724
RightShoulder  3.71525 7.38165 28.1222
RightArm  -16.9346 -21.2408 42.4476
RightForeArm  18.8896 8.48328 4.16013
RightHand  -0.521064 0.177526 -10.8943
LeftUpLeg  3.352 12.6926 10.279
LeftLeg  56.3049 6.65522 11.0992
LeftFoot  7.61969 0.517737 -3.33899
LeftToes  1.06243e-005 4.65856e-005 -8.18505e-006
327
root  20.1882 38.0287 -3.23193 -12.2725 73.1598 -11.1655
RightUpLeg  -23.1505 -15.4927 6.24846
RightLeg  32.9361 -3.97438 -3.03157
RightFoot  -8.19017 0.0839374 -5.09191
RightToes  0.00048216 0.542163 -0.142577
Spine  21.0132 -7.29084 4.98547
Spine1  5.15078 -9.37396 12.3765
HEad  14.169 0.428531 -2.41887
LeftShoulder1  7.08961 -11.6758 -40.4288
LeftArm  29.0678 -17.2047 -49.9732
LeftForeArm  37.634 -42.0806 -7.63088
LeftHand  -0.25398 0.0180481 5.50724
RightShoulder  3.99527 7.90846 29.0276
RightArm  -16.7148 -16.2174 39.3065
RightForeArm  13.0735 9.1434 4.57576
RightHand  -0.699484 1.13393 -12.5699
LeftUpLeg  -2.40609 12.9431 9.31721
LeftLeg  61.6405 5.02114 10.5914
LeftFoot  5.37257 0.51832 -3.7732
LeftToes  1.06243e-005 4.65856e-005 -8.18505e-006
328
root  21.4618 38.415 -2.8471 -9.91015 72.2387 -8.60964
RightUpLeg  -19.8884 -14.9409 5.04398
RightLeg  31.4691 -3.70988 -2.70559
RightFoot  -9.18046 0.0325219 -5.00777
RightToes  0.00048216 0.542163 -0.142577
Spine  20.4386 -6.54668 5.84718
Spine1  5.85661 -8.26736 11.2971
HEad  14.6105 -1.32945 -2.06119
LeftShoulder1  7.23403 -11.9389 -40.5614
LeftArm  26.6116 -16.8175 -48.9719
LeftForeArm  35.5548 -39.0825 -6.86711
LeftHand  -0.25398 0.0180481 5.50724
RightShoulder  4.1796 8.24017 29.6214
RightArm  -15.6634 -10.6449 36.3461
RightForeArm  9.10181 9.9076 5.09934
RightHand  -0.881974 1.96615 -14.0853
LeftUpLeg  -7.91724 13.7272 8.1172
LeftLeg  63.5584 4.09817 9.56125
LeftFoot  3.34262 0.603219 -4.82675
LeftToes  1.06243e-005 4.65856e-005 -8.18505e-006
329
root  22.7528 38.7801 -2.47813 -7.63683 70.9955 -6.22193
RightUpLeg  -16.4845 -14.3511 3.80192
RightLeg  29.477 -3.15723 -2.18738
RightFoot  -10.2151 -0.0236289 -4.54483
RightToes  0.00048216 0.542163 -0.142577
Spine  19.6702 -5.74483 6.83511
Spine1  6.45914 -7.02505 9.92512
HEad  14.9527 -2.57152 -1.64293
LeftShoulder1  7.40848 -12.21 -40.8465
LeftArm  23.8803 -15.7844 -47.177
LeftForeArm  33.667 -36.3197 -6.22072
LeftHand  -0.25398 0.0180481 5.50724
RightShoulder  4.2498 8.39606 29.7464
RightArm  -14.6848 -4.77947 33.8691
RightForeArm  7.75656 10.6419 5.41947
RightHand  -1.05776 2.88593 -15.0503
LeftUpLeg  -12.8831 14.7827 6.79455
LeftLeg  62.3459 3.79712 8.44815
LeftFoot  2.34704 0.551268 -4.7025
LeftToes  1.06243e-005 4.65856e-005 -8.18505e-006
